<svg width="1240" height="496" viewBox="0 0 1240 496" fill="none" xmlns="http://www.w3.org/2000/svg">
<g clip-path="url(#clip0_1_303)">
<path d="M154.393 186.031H49.0762V159.702H154.393V186.031ZM154.393 88.8159H49.0762V62.4868H154.393V88.8159Z" fill="#FFC965"/>
<path d="M203.001 13.8789V242.739L203 242.74H0.46875V13.8789H203.001ZM26.7979 216.411H176.672V137.424H49.0762V111.095H176.672V40.208H26.7979V216.411Z" fill="#8B5122"/>
<path d="M429.531 40.0923H341.431V242.74H315.102V40.0923H227V13.8794H429.531V40.0923Z" fill="#1570EF"/>
<path d="M429.531 88.4858H378.329V243.208H352V62.7407H363.709V62.2729H429.531V88.4858ZM292.822 242.74H266.493V88.4858H227V62.2729H292.822V242.74Z" fill="#6AA8FF"/>
<path d="M203 495.601H0.46875V266.741H203V495.601ZM127.082 290.379C126.88 289.911 126.425 290.029 125.988 290.096C124.338 290.459 122.668 290.717 121.009 291.008C119.961 291.192 118.912 291.464 118.33 292.444C117.548 293.697 117.474 295.564 115.749 295.884C115.071 296.035 114.389 296.062 113.719 296.139C113.19 296.2 112.738 296.511 112.408 296.928C112.336 297.02 112.262 297.11 112.187 297.196C112.03 297.375 111.808 297.481 111.573 297.516C111.088 297.589 110.684 297.944 110.568 298.421C110.512 298.652 110.455 298.888 110.402 299.119C110.276 299.668 110.414 300.233 110.67 300.736C110.848 301.085 110.981 301.412 111.125 301.737C111.41 302.377 111.931 302.868 112.584 303.123C112.744 303.185 112.905 303.247 113.059 303.312C113.817 303.633 114.114 304.497 113.61 305.149C113.053 305.87 112.216 306.63 112.508 307.665C112.722 308.422 113.023 309.188 113.223 309.946C113.291 310.338 112.857 311.364 113.059 311.688C113.304 312.08 114.588 313.117 113.894 313.656C112.887 314.436 111.875 314.524 110.848 314.585C108.453 314.728 107.617 316.927 107.608 319.327C107.605 320.187 105.98 321.758 105.615 322.45C105.238 323.147 105.211 324.149 105.329 325.129C105.492 326.476 104.962 327.809 104.173 328.913C103.919 329.267 103.923 329.663 104.231 329.97C104.563 330.3 105.001 330.414 104.66 330.809C104.397 331.113 103.534 331.623 103.328 331.965C102.561 333.238 102.545 335.233 101.382 336.257C100.957 336.632 99.8233 336.982 99.9414 337.792C100.122 339.026 100.276 339.755 99.125 340.237C98.7403 340.398 98.3696 340.56 98.0762 340.751C97.6425 341.036 97.0358 342.802 96.7129 343.306C96.1958 344.113 95.6012 344.821 95.2256 345.702C95.0963 346.033 95.0092 347.66 94.9736 348.085C94.9193 348.735 94.3175 351.022 94.3838 351.478C94.6073 353.002 95.7102 354.736 95.5811 356.474C95.516 357.348 94.9023 358.347 94.6475 359.207C94.3589 360.18 94.2764 361.03 93.9355 362.001C93.4434 363.404 93.172 364.81 93.3369 366.287C93.4456 367.259 93.3671 368.2 92.7266 369.081C91.6001 370.63 89.8026 370.748 88.373 372.011C87.4073 372.865 87.1216 374.051 86.1689 374.759C85.4767 375.274 84.4028 375.462 83.5791 375.639C81.3482 376.119 80.8994 373.409 78.6885 374.171C74.6361 375.568 72.5974 376.103 72.3799 371.822C72.3678 371.584 72.3488 371.356 72.3184 371.142C72.0865 369.719 69.7383 367.279 70.7197 365.824C71.3255 364.926 73.6094 364.899 73.4131 362.938C73.2604 361.414 72.4103 360.37 70.792 360.273C68.7769 360.152 66.7107 360.188 64.6846 360.174L54.8008 360.028C52.5771 359.99 50.3537 359.936 48.1309 359.866C45.857 359.795 43.0381 359.179 41.6709 361.399C40.627 363.094 39.6067 364.592 38.7568 366.18C37.1842 369.119 34.6618 371.082 32.6143 373.712C29.0139 378.338 26.3472 384.725 30.3125 390.024C32.6021 393.108 34.5478 391.377 32.4893 395.755C31.6006 397.645 31.44 399.81 30.0068 401.329C29.9711 401.366 29.9351 401.404 29.8994 401.442C28.4297 403.004 27.7045 405.15 27.9814 407.277C28.057 407.857 24.8837 410.694 24.2471 410.779C23.6432 410.859 22.9371 409.437 22.2363 410.244C21.7321 410.888 22.1813 411.937 20.79 412.029C20.4022 412.05 20.0795 412.358 20.0771 412.747C20.0734 413.37 20.1275 413.689 20.2666 414.013C20.6359 414.874 20.5141 415.819 19.8477 416.477C18.8969 417.416 18.1018 418.565 19.3037 419.561C19.9867 420.127 20.7339 420.455 21.4082 420.933C21.8019 421.212 21.9904 421.716 22.0391 422.196C22.1094 422.891 22.69 423.34 23.3662 423.517C24.0936 423.708 24.3762 423.97 24.7852 425.221C24.949 425.722 25.0375 425.839 25.0352 426.01C25.03 426.388 25.1894 426.58 25.5645 426.625C25.6649 426.636 25.7896 426.707 25.8408 426.794C26.0037 427.072 25.9817 427.384 26.0117 427.673C26.0755 428.288 26.8155 428.339 27.4307 428.285C27.6168 428.268 27.7872 428.283 27.9219 428.37C28.0629 428.461 28.1943 428.566 28.3135 428.684C28.3358 428.706 28.3644 428.721 28.3955 428.726C28.4475 428.734 28.5009 428.713 28.5273 428.667C28.6139 428.518 28.6411 428.348 28.6562 428.17C28.6732 427.972 28.7264 427.744 28.9121 427.671C28.9352 427.662 28.9586 427.656 28.9824 427.652C29.2908 427.601 29.5418 427.901 29.6035 428.208C29.6125 428.252 29.6243 428.301 29.6445 428.358C30.1654 429.838 30.8196 429.758 30.7002 430.951C30.6436 431.517 30.7822 432.078 31.1133 432.541C31.2375 432.714 31.3274 432.881 31.4062 433.095C31.5569 433.503 31.9139 433.81 32.3486 433.808C32.8815 433.805 33.2837 433.369 33.3447 432.839C33.3508 432.787 33.3586 432.734 33.3682 432.681C33.4541 432.204 33.957 431.907 34.4248 432.034C34.6375 432.091 34.8001 432.173 34.9189 432.311C35.3267 432.784 35.6113 433.207 36.2158 433.05C36.4406 432.993 37.0807 433.55 37.3359 433.418C37.65 433.256 37.9247 433.057 38.2344 432.966C38.6137 432.856 39.0336 433.119 39.0352 433.514C39.0375 434.199 38.9984 434.898 39.4102 435.445C39.9506 436.163 40.2581 436.842 40.2803 437.994C40.2902 438.513 40.2889 439.034 40.2822 439.554C40.2656 440.856 41.5097 441.762 42.8086 441.85C43.3599 441.887 43.5065 442.286 43.4971 442.838C43.4472 445.761 40.4065 449.729 42.4336 452.833C42.4871 452.914 42.5476 452.996 42.6133 453.078C43.2241 453.833 43.7461 454.69 43.9707 455.635C44.1928 456.57 45.0523 457.074 45.8594 456.552C46.7531 455.975 47.7013 454.991 48.2061 454.567C49.4218 453.546 51.2253 452.575 52.083 451.265C52.2791 450.965 51.6972 450.583 51.0352 450.272C50.1192 449.842 49.132 449.165 49.0596 448.156C48.959 446.749 50.6673 446.251 52.0752 446.337C53.2469 446.409 54.4282 446.342 55.6143 446.235C56.7678 446.131 57.4869 447.294 58.6348 447.449C59.0592 447.506 59.5513 447.121 59.5635 446.693C59.5834 445.985 59.1647 445.139 59.6406 444.758C60.2205 444.295 60.6466 444.149 60.9736 444.202C62.0566 444.376 62.9862 445.373 64.082 445.326C64.2797 445.317 64.49 445.308 64.7266 445.286C64.9868 445.261 65.2085 445.089 65.3115 444.849C65.4199 444.596 65.5269 444.338 65.6123 444.083C65.6332 444.022 65.7057 443.994 65.7617 444.027C66.3151 444.351 66.7279 444.435 67.334 444.625C67.9653 444.825 68.0708 445.397 68.1133 445.967C68.1437 446.376 68.4444 446.701 68.8486 446.768C69.3029 446.844 69.6394 447.227 69.6699 447.687C69.6848 447.911 69.7079 448.115 69.752 448.334C69.8536 448.841 70.2536 449.238 70.7559 449.361C73.0991 449.934 73.2406 448.463 74.6777 446.901C75.8098 445.67 79.2055 445.293 81.1816 444.858C81.5316 444.781 81.8512 444.561 82.0605 444.27C82.5643 443.57 83.4668 443.254 84.2197 443.674C84.9039 444.057 85.5437 444.469 86.2764 444.929C89.0869 446.482 92.0481 448.481 94.9385 449.893C96.1168 450.47 97.5594 450.478 98.2861 451.57C98.4194 451.77 98.5403 451.974 98.6484 452.188C99.1933 453.267 99.6305 454.44 100.587 455.18C101.052 455.54 101.53 455.883 101.991 456.238C103.747 457.587 105.605 458.842 107.349 460.202C107.408 460.248 107.435 460.326 107.417 460.399C107.154 461.431 106.586 462.309 106.322 463.263C106.042 464.277 106.025 465.654 105.761 466.693C105.655 467.108 105.352 467.4 105.219 467.811C105.153 468.013 105.215 468.243 105.411 468.325C105.578 468.394 105.742 468.498 105.787 468.672C105.849 468.912 105.874 469.248 105.889 469.597C105.923 470.42 106.261 471.184 106.817 471.791C106.883 471.862 106.949 471.934 107.015 472.004C107.665 472.699 108.587 473.018 109.538 473.06C110.891 473.119 112.296 473.168 113.567 473.034C114.44 472.941 115.21 472.067 115.967 471.763C117.276 471.237 119.011 471.589 120.317 470.968C121.183 470.557 121.775 469.81 122.543 469.29C123.079 468.926 124.068 468.753 124.558 468.289C125.665 467.235 126.077 465.072 127.269 464.1C128.363 463.209 129.806 462.596 130.953 461.638C132.115 460.668 133.63 459.652 134.694 458.594C136.902 456.404 138.491 453.183 139.461 450.229C140.183 448.028 139.075 445.631 137.09 444.439C135.116 443.254 133.423 441.99 132.075 439.602C131.446 438.486 130.131 437.29 129.48 436.129C128.31 434.182 127.532 430.88 126.855 428.659C126.658 428.01 126.537 426.806 126.423 425.756C126.323 424.842 126.015 424.009 125.333 423.392C123.934 422.126 123.371 420.214 123.747 418.365C124.012 417.063 124.376 415.883 125.476 414.598C127.121 412.677 127.67 412.462 129.893 414.052C130.982 414.837 133.368 416.251 133.859 417.485C134.942 420.203 134.762 421.605 137.647 419.048C139.634 417.287 141.19 414.397 143.133 412.822C143.386 412.617 143.731 412.412 144.135 412.213C147.696 410.458 151.904 410.452 155.532 408.839C157.522 407.954 158.786 405.863 160.525 404.792C162.736 403.429 164.822 401.466 166.759 399.92C167.354 399.446 170.838 399.262 171.733 399.03C172.536 398.9 175.007 398.521 175.613 398.798C175.831 398.898 176.03 398.988 176.214 399.067C178.886 400.212 180.559 396.697 180.349 393.797C180.192 391.623 180.029 389.367 179.762 387.204C179.679 386.539 179.425 385.863 179.188 385.233C178.293 382.852 176.656 381.668 176.104 379.215C175.474 376.409 177.237 374.225 177.104 371.9C176.891 368.114 176.298 364.81 177.972 361.407C178.048 361.251 178.119 361.096 178.181 360.941C179.082 358.687 179.48 357.232 180.996 355.334C181.692 354.462 181.641 350.53 181.609 349.408C181.49 346.916 181.378 344.379 182.873 342.193C185.55 338.279 185.88 335.883 184.167 331.422C183.738 330.308 183.641 328.298 183.053 327.254C182.501 326.274 181.158 325.387 180.502 324.367C178.684 321.536 175.865 319.995 172.653 320.995C172.334 321.094 172.007 321.191 171.668 321.285C170.6 321.579 168.963 321.373 167.883 321.489C167.169 321.565 165.983 322.445 165.213 321.699C163.815 320.341 164.422 317.089 163.822 315.573C163.751 315.393 163.502 315.071 163.184 314.701C162.09 313.429 160.18 313.955 158.636 313.3C158.068 313.059 157.989 312.475 157.957 311.917C157.942 311.649 157.866 311.385 157.702 311.173C157.673 311.135 157.643 311.1 157.614 311.065C157.226 310.604 157.052 309.991 157.298 309.441C157.434 309.136 157.466 308.791 157.375 308.469C157.34 308.346 157.302 308.224 157.258 308.107C157.134 307.777 156.84 307.521 156.488 307.552C155.143 307.672 152.743 309.616 152.031 309.118C148.733 306.807 147.338 302.363 144.592 299.625C143.289 298.327 142.074 300.066 141.439 300.851C141.048 301.336 138.994 301.125 138.428 301.507C137.042 302.709 136.449 303.915 134.433 304.581C134.229 304.648 134.037 304.947 133.844 305.252C133.461 305.859 132.77 305.841 132.322 305.282C131.835 304.673 131.106 304.263 130.327 304.23C130.258 304.227 130.194 304.226 130.14 304.229C126.553 304.423 125.423 304.943 126.038 300.618C126.155 299.798 126.524 299.397 127.25 298.907C128.902 297.976 129.854 297.405 130.647 296.302C131.355 295.319 130.586 294.114 129.38 294.012C128.727 293.957 128.228 293.488 128.015 292.868C127.727 292.029 127.431 291.191 127.082 290.379Z" fill="#C3262D"/>
<path d="M429.101 315.942V412.651H429.278V438.626H301.937V495.601H275.607V438.626H275.354V412.651H275.607V412.562H301.937V412.651H403.126V341.917H275.607V315.942H429.101Z" fill="#029B4A"/>
<path d="M429.531 266.74V293.069H253.329V364.044H381.022V390.98H253.329V495.602H227V266.74H429.531Z" fill="#029B4A"/>
</g>
<path d="M501.33 156.24V17.6402H558.87C567.41 17.6402 575.04 18.4102 581.76 19.9502C588.48 21.3502 594.22 23.5202 598.98 26.4602C603.88 29.4002 607.59 33.2502 610.11 38.0102C612.77 42.6302 614.1 48.1602 614.1 54.6002C614.1 60.0602 612.91 64.8202 610.53 68.8802C608.29 72.9402 604.72 76.2302 599.82 78.7502C595.06 81.2702 588.76 83.0202 580.92 84.0002V87.1502C594.22 88.1302 603.95 91.4902 610.11 97.2302C616.41 102.83 619.56 110.39 619.56 119.91C619.56 127.89 617.46 134.61 613.26 140.07C609.2 145.39 603.04 149.45 594.78 152.25C586.52 154.91 576.3 156.24 564.12 156.24H501.33ZM530.1 131.88H563.7C572.66 131.88 579.31 130.55 583.65 127.89C587.99 125.09 590.16 120.82 590.16 115.08C590.16 108.5 587.43 103.6 581.97 100.38C576.51 97.0202 568.25 95.3402 557.19 95.3402H530.1V131.88ZM530.1 76.4402H552.78C563.7 76.4402 571.68 74.9702 576.72 72.0302C581.9 68.9502 584.49 64.4702 584.49 58.5902C584.49 52.7102 582.18 48.4402 577.56 45.7802C572.94 42.9802 565.87 41.5802 556.35 41.5802H530.1V76.4402ZM673.45 159.18C664.35 159.18 656.23 157.92 649.09 155.4C642.09 152.88 636.14 149.24 631.24 144.48C626.34 139.72 622.56 133.84 619.9 126.84C617.38 119.84 616.12 111.93 616.12 103.11C616.12 94.4302 617.31 86.4502 619.69 79.1702C622.21 71.7502 625.85 65.3802 630.61 60.0602C635.37 54.6002 641.18 50.4002 648.04 47.4602C654.9 44.5202 662.67 43.0502 671.35 43.0502C679.75 43.0502 687.24 44.4502 693.82 47.2502C700.4 49.9102 705.86 53.9702 710.2 59.4302C714.68 64.8902 717.9 71.6102 719.86 79.5902C721.96 87.4302 722.73 96.4602 722.17 106.68L635.65 107.52V90.9302L704.74 90.3002L694.03 98.7002C695.01 91.2802 694.52 85.1902 692.56 80.4302C690.6 75.6702 687.73 72.1702 683.95 69.9302C680.31 67.6902 676.25 66.5702 671.77 66.5702C666.45 66.5702 661.76 67.9702 657.7 70.7702C653.64 73.5702 650.49 77.7002 648.25 83.1602C646.01 88.4802 644.89 94.9202 644.89 102.48C644.89 114.38 647.48 123.13 652.66 128.73C657.98 134.33 664.91 137.13 673.45 137.13C677.37 137.13 680.66 136.64 683.32 135.66C686.12 134.54 688.36 133.14 690.04 131.46C691.86 129.78 693.26 127.89 694.24 125.79C695.36 123.69 696.27 121.59 696.97 119.49L723.22 125.16C721.96 130.34 720.07 135.03 717.55 139.23C715.17 143.29 711.95 146.86 707.89 149.94C703.83 152.88 698.93 155.12 693.19 156.66C687.59 158.34 681.01 159.18 673.45 159.18ZM723.231 156.24V89.4602V45.9902H748.011L747.801 78.9602H752.001C753.821 70.9802 756.411 64.3302 759.771 59.0102C763.131 53.6902 767.331 49.7002 772.371 47.0402C777.551 44.3802 783.641 43.0502 790.641 43.0502C803.381 43.0502 813.041 47.5302 819.621 56.4902C826.341 65.4502 829.701 79.5202 829.701 98.7002V156.24H799.251V102.06C799.251 90.3002 797.501 81.7602 794.001 76.4402C790.641 70.9802 785.671 68.2502 779.091 68.2502C773.491 68.2502 768.801 70.0002 765.021 73.5002C761.241 77.0002 758.371 81.6202 756.411 87.3602C754.591 92.9602 753.611 99.2602 753.471 106.26V156.24H723.231ZM834.712 156.24V45.9902H864.952V156.24H834.712ZM850.042 29.4002C844.162 29.4002 839.612 28.2102 836.392 25.8302C833.312 23.3102 831.772 19.6702 831.772 14.9102C831.772 10.0102 833.312 6.30023 836.392 3.78023C839.612 1.26023 844.162 0.00023067 850.042 0.00023067C856.062 0.00023067 860.612 1.26023 863.692 3.78023C866.912 6.30023 868.522 10.0102 868.522 14.9102C868.522 19.5302 866.912 23.1002 863.692 25.6202C860.612 28.1402 856.062 29.4002 850.042 29.4002ZM871.954 156.24V89.4602V45.9902H896.734L896.524 78.9602H900.724C902.544 70.9802 905.134 64.3302 908.494 59.0102C911.854 53.6902 916.054 49.7002 921.094 47.0402C926.274 44.3802 932.364 43.0502 939.364 43.0502C952.104 43.0502 961.764 47.5302 968.344 56.4902C975.064 65.4502 978.424 79.5202 978.424 98.7002V156.24H947.974V102.06C947.974 90.3002 946.224 81.7602 942.724 76.4402C939.364 70.9802 934.394 68.2502 927.814 68.2502C922.214 68.2502 917.524 70.0002 913.744 73.5002C909.964 77.0002 907.094 81.6202 905.134 87.3602C903.314 92.9602 902.334 99.2602 902.194 106.26V156.24H871.954ZM530.73 324.24V185.64H560.97V324.24H530.73ZM489.78 211.05V185.64H601.92V211.05H489.78ZM635.51 327.18C626.41 327.18 618.29 325.92 611.15 323.4C604.15 320.88 598.2 317.24 593.3 312.48C588.4 307.72 584.62 301.84 581.96 294.84C579.44 287.84 578.18 279.93 578.18 271.11C578.18 262.43 579.37 254.45 581.75 247.17C584.27 239.75 587.91 233.38 592.67 228.06C597.43 222.6 603.24 218.4 610.1 215.46C616.96 212.52 624.73 211.05 633.41 211.05C641.81 211.05 649.3 212.45 655.88 215.25C662.46 217.91 667.92 221.97 672.26 227.43C676.74 232.89 679.96 239.61 681.92 247.59C684.02 255.43 684.79 264.46 684.23 274.68L597.71 275.52V258.93L666.8 258.3L656.09 266.7C657.07 259.28 656.58 253.19 654.62 248.43C652.66 243.67 649.79 240.17 646.01 237.93C642.37 235.69 638.31 234.57 633.83 234.57C628.51 234.57 623.82 235.97 619.76 238.77C615.7 241.57 612.55 245.7 610.31 251.16C608.07 256.48 606.95 262.92 606.95 270.48C606.95 282.38 609.54 291.13 614.72 296.73C620.04 302.33 626.97 305.13 635.51 305.13C639.43 305.13 642.72 304.64 645.38 303.66C648.18 302.54 650.42 301.14 652.1 299.46C653.92 297.78 655.32 295.89 656.3 293.79C657.42 291.69 658.33 289.59 659.03 287.49L685.28 293.16C684.02 298.34 682.13 303.03 679.61 307.23C677.23 311.29 674.01 314.86 669.95 317.94C665.89 320.88 660.99 323.12 655.25 324.66C649.65 326.34 643.07 327.18 635.51 327.18ZM737.347 327.18C727.827 327.18 719.497 325.78 712.357 322.98C705.217 320.18 699.267 316.26 694.507 311.22C689.747 306.18 686.177 300.23 683.797 293.37C681.417 286.37 680.227 278.74 680.227 270.48C680.227 261.8 681.417 253.89 683.797 246.75C686.317 239.47 689.957 233.17 694.717 227.85C699.477 222.53 705.357 218.4 712.357 215.46C719.357 212.52 727.337 211.05 736.297 211.05C745.257 211.05 753.027 212.52 759.607 215.46C766.327 218.4 771.717 222.53 775.777 227.85C779.977 233.03 782.847 239.19 784.387 246.33L756.457 255.36C756.037 251.02 754.847 247.31 752.887 244.23C751.067 241.01 748.547 238.63 745.327 237.09C742.247 235.41 738.747 234.57 734.827 234.57C730.767 234.57 727.267 235.41 724.327 237.09C721.387 238.63 718.867 240.94 716.767 244.02C714.807 246.96 713.267 250.6 712.147 254.94C711.167 259.14 710.677 263.9 710.677 269.22C710.677 276.78 711.657 283.22 713.617 288.54C715.717 293.72 718.727 297.71 722.647 300.51C726.707 303.17 731.677 304.5 737.557 304.5C743.157 304.5 747.637 303.45 750.997 301.35C754.357 299.11 756.807 296.31 758.347 292.95C760.027 289.45 761.077 285.88 761.497 282.24L787.957 288.12C787.257 293.58 785.717 298.69 783.337 303.45C781.097 308.21 777.877 312.34 773.677 315.84C769.477 319.34 764.367 322.14 758.347 324.24C752.467 326.2 745.467 327.18 737.347 327.18ZM784.262 324.24V254.94V174.09H814.712V208.53C814.712 211.33 814.572 214.27 814.292 217.35C814.152 220.43 813.802 223.58 813.242 226.8C812.822 229.88 812.332 233.03 811.772 236.25C811.352 239.47 810.862 242.69 810.302 245.91H814.922C816.882 238.77 819.332 232.61 822.272 227.43C825.352 222.25 829.272 218.26 834.032 215.46C838.792 212.52 844.812 211.05 852.092 211.05C864.972 211.05 874.632 215.6 881.072 224.7C887.512 233.66 890.732 247.45 890.732 266.07V324.24H860.282V270.69C860.282 258.93 858.532 250.25 855.032 244.65C851.672 238.91 846.562 236.04 839.702 236.04C834.102 236.04 829.482 237.72 825.842 241.08C822.202 244.44 819.472 248.99 817.652 254.73C815.832 260.33 814.782 266.63 814.502 273.63V324.24H784.262ZM501.33 492.24V353.64H531.57V492.24H501.33ZM515.82 440.37V415.59H596.67V440.37H515.82ZM515.82 379.47V353.64H604.44V379.47H515.82ZM651.916 495.18C642.816 495.18 634.696 493.92 627.556 491.4C620.556 488.88 614.606 485.24 609.706 480.48C604.806 475.72 601.026 469.84 598.366 462.84C595.846 455.84 594.586 447.93 594.586 439.11C594.586 430.43 595.776 422.45 598.156 415.17C600.676 407.75 604.316 401.38 609.076 396.06C613.836 390.6 619.646 386.4 626.506 383.46C633.366 380.52 641.136 379.05 649.816 379.05C658.216 379.05 665.706 380.45 672.286 383.25C678.866 385.91 684.326 389.97 688.666 395.43C693.146 400.89 696.366 407.61 698.326 415.59C700.426 423.43 701.196 432.46 700.636 442.68L614.116 443.52V426.93L683.206 426.3L672.496 434.7C673.476 427.28 672.986 421.19 671.026 416.43C669.066 411.67 666.196 408.17 662.416 405.93C658.776 403.69 654.716 402.57 650.236 402.57C644.916 402.57 640.226 403.97 636.166 406.77C632.106 409.57 628.956 413.7 626.716 419.16C624.476 424.48 623.356 430.92 623.356 438.48C623.356 450.38 625.946 459.13 631.126 464.73C636.446 470.33 643.376 473.13 651.916 473.13C655.836 473.13 659.126 472.64 661.786 471.66C664.586 470.54 666.826 469.14 668.506 467.46C670.326 465.78 671.726 463.89 672.706 461.79C673.826 459.69 674.736 457.59 675.436 455.49L701.686 461.16C700.426 466.34 698.536 471.03 696.016 475.23C693.636 479.29 690.416 482.86 686.356 485.94C682.296 488.88 677.396 491.12 671.656 492.66C666.056 494.34 659.476 495.18 651.916 495.18ZM747.028 495.18C739.608 495.18 732.888 494.48 726.868 493.08C720.848 491.68 715.668 489.65 711.328 486.99C706.988 484.33 703.488 481.18 700.828 477.54C698.168 473.76 696.418 469.56 695.578 464.94L718.678 455.49C719.238 458.57 720.778 461.44 723.298 464.1C725.818 466.76 729.178 468.93 733.378 470.61C737.718 472.15 742.898 472.92 748.918 472.92C755.358 472.92 760.328 472.01 763.828 470.19C767.328 468.23 769.078 465.5 769.078 462C769.078 459.34 768.098 457.24 766.138 455.7C764.178 454.16 761.308 452.83 757.528 451.71C753.748 450.59 749.198 449.54 743.878 448.56C738.698 447.3 733.378 445.97 727.918 444.57C722.598 443.17 717.628 441.21 713.008 438.69C708.528 436.17 704.818 432.88 701.878 428.82C699.078 424.62 697.678 419.3 697.678 412.86C697.678 406.14 699.498 400.26 703.138 395.22C706.778 390.18 712.098 386.26 719.098 383.46C726.098 380.52 734.638 379.05 744.718 379.05C753.818 379.05 761.798 380.31 768.658 382.83C775.518 385.21 781.118 388.71 785.458 393.33C789.938 397.81 792.948 403.2 794.488 409.5L769.918 417.69C769.358 414.33 767.958 411.39 765.718 408.87C763.618 406.35 760.748 404.46 757.108 403.2C753.608 401.94 749.478 401.31 744.718 401.31C738.698 401.31 734.008 402.29 730.648 404.25C727.428 406.21 725.818 408.8 725.818 412.02C725.818 414.68 726.868 416.85 728.968 418.53C731.208 420.21 734.288 421.61 738.208 422.73C742.128 423.71 746.748 424.76 752.068 425.88C757.668 427 763.128 428.33 768.448 429.87C773.768 431.27 778.528 433.16 782.728 435.54C787.068 437.92 790.498 441.07 793.018 444.99C795.538 448.91 796.798 453.95 796.798 460.11C796.798 467.39 794.838 473.69 790.918 479.01C786.998 484.19 781.328 488.18 773.908 490.98C766.488 493.78 757.528 495.18 747.028 495.18ZM837.107 494.76C824.787 494.76 815.687 491.54 809.807 485.1C804.067 478.52 801.197 468.09 801.197 453.81V405.72H785.237L785.657 381.99H796.787C801.127 381.99 804.347 381.36 806.447 380.1C808.547 378.84 809.807 376.53 810.227 373.17L812.957 357.42H830.177V381.99H858.107V406.56H830.177V452.55C830.177 457.59 831.367 461.23 833.747 463.47C836.127 465.71 839.767 466.83 844.667 466.83C847.327 466.83 849.847 466.55 852.227 465.99C854.747 465.43 856.917 464.52 858.737 463.26V491.4C854.397 492.8 850.407 493.71 846.767 494.13C843.127 494.55 839.907 494.76 837.107 494.76Z" fill="black"/>
<path d="M1194.58 492.24H1164.58L1209.58 372.24H1239.58L1194.58 492.24Z" fill="black"/>
<path d="M1145 492.24H1115L1160 372.24H1190L1145 492.24Z" fill="#1570EF"/>
<path d="M1092.5 492.24H935V372.24H1137.5L1092.5 492.24ZM1056.18 399.175C1050.78 399.175 1046.12 400.478 1042.21 403.085C1038.32 405.671 1035.33 409.445 1033.22 414.406C1031.14 419.368 1030.1 425.37 1030.1 432.412C1030.08 439.476 1031.11 445.52 1033.19 450.544C1035.29 455.568 1038.29 459.405 1042.18 462.054C1046.09 464.703 1050.76 466.038 1056.18 466.059C1061.6 466.059 1066.26 464.735 1070.15 462.086C1074.04 459.437 1077.02 455.6 1079.11 450.576C1081.21 445.552 1082.26 439.497 1082.26 432.412C1082.28 425.37 1081.24 419.378 1079.14 414.438C1077.03 409.476 1074.03 405.692 1070.12 403.085C1066.23 400.478 1061.58 399.175 1056.18 399.175ZM1022.09 450.387C1020.01 450.387 1018.22 451.122 1016.73 452.594C1015.26 454.065 1014.52 455.831 1014.52 457.892C1014.52 459.973 1015.26 461.76 1016.73 463.253C1018.22 464.724 1020.01 465.46 1022.09 465.46C1023.46 465.46 1024.71 465.124 1025.84 464.451C1026.98 463.757 1027.9 462.842 1028.59 461.707C1029.3 460.551 1029.66 459.279 1029.66 457.892C1029.66 455.831 1028.9 454.065 1027.39 452.594C1025.88 451.122 1024.11 450.387 1022.09 450.387ZM987.485 399.175C982.987 399.175 979.013 400.027 975.565 401.729C972.118 403.432 969.437 405.84 967.523 408.951C965.611 412.062 964.654 415.731 964.654 419.956H977.614C977.614 417.896 978.015 416.12 978.813 414.627C979.612 413.134 980.747 411.988 982.219 411.189C983.69 410.391 985.415 409.991 987.391 409.991C989.282 409.991 990.974 410.37 992.467 411.127C993.959 411.863 995.137 412.924 995.999 414.312C996.861 415.678 997.292 417.307 997.292 419.199C997.292 420.902 996.945 422.489 996.251 423.961C995.557 425.411 994.538 426.894 993.192 428.407C991.868 429.921 990.228 431.624 988.273 433.516L965.285 454.802V464.64H1011.32V453.477H984.205V453.035L993.634 443.796C998.07 439.76 1001.51 436.301 1003.95 433.421C1006.38 430.52 1008.08 427.881 1009.02 425.506C1009.99 423.13 1010.47 420.724 1010.47 418.285C1010.47 414.564 1009.52 411.263 1007.6 408.383C1005.69 405.503 1003.01 403.253 999.562 401.635C996.136 399.995 992.11 399.175 987.485 399.175ZM1056.18 410.37C1058.64 410.37 1060.77 411.19 1062.58 412.829C1064.41 414.469 1065.82 416.918 1066.81 420.177C1067.82 423.435 1068.32 427.514 1068.32 432.412C1068.34 439.854 1067.25 445.435 1065.04 449.156C1062.83 452.877 1059.88 454.738 1056.18 454.738C1053.72 454.738 1051.58 453.918 1049.75 452.278C1047.92 450.618 1046.5 448.137 1045.49 444.837C1044.5 441.515 1044.01 437.373 1044.01 432.412C1044.03 425.075 1045.14 419.568 1047.35 415.889C1049.56 412.21 1052.5 410.37 1056.18 410.37Z" fill="#C3262D"/>
<defs>
<clipPath id="clip0_1_303">
<rect width="430" height="480" fill="white" transform="translate(0 14.7402)"/>
</clipPath>
</defs>
</svg>
